<svg xmlns="http://www.w3.org/2000/svg" xmlns:xlink="http://www.w3.org/1999/xlink" width="303.035" height="89.924" viewBox="0 0 303.035 89.924">
  <defs>
    <clipPath id="clip-path">
      <path id="Clip_31" data-name="Clip 31" d="M0,89.126H300.8V0H0Z" fill="none"/>
    </clipPath>
  </defs>
  <g id="Grupo_4542" data-name="Grupo 4542" transform="translate(-508.889 -3075.5)">
    <g id="icon_app_appstore" data-name="icon/app/appstore" transform="translate(509.389 3076)">
      <g id="icon_app_appstore-2" data-name="icon/app/appstore" transform="translate(0 0)">
        <rect id="Rectangle" width="302.035" height="88.924" rx="18" fill="#fff" stroke="#cfcfcf" stroke-width="1"/>
        <g id="Grupo_4534" data-name="Grupo 4534" transform="translate(0 7.668)">
          <path id="Fill_4" data-name="Fill 4" d="M34.282,14.676a11.494,11.494,0,0,1,5.455-9.626A11.822,11.822,0,0,0,30.485.042C26.6-.368,22.82,2.377,20.842,2.377c-2.014,0-5.08-2.282-8.36-2.228A12.292,12.292,0,0,0,2.125,6.477C-2.349,14.231.984,25.639,5.28,31.913c2.157,3.066,4.652,6.506,7.95,6.381,3.209-.125,4.421-2.05,8.289-2.05,3.85,0,4.973,2.05,8.324,1.979,3.458-.053,5.615-3.084,7.7-6.185a25.144,25.144,0,0,0,3.512-7.166,11.117,11.117,0,0,1-6.774-10.2" transform="translate(42.243 27.951)"/>
          <path id="Fill_6" data-name="Fill 6" d="M7.56,8.093A11.309,11.309,0,0,0,10.144,0,11.467,11.467,0,0,0,2.711,3.85,10.844,10.844,0,0,0,.055,11.64a9.5,9.5,0,0,0,7.5-3.547" transform="translate(62.637 15.783)"/>
        </g>
        <g id="Grupo_4535" data-name="Grupo 4535" transform="translate(0 0.353)">
          <path id="Fill_8" data-name="Fill 8" d="M4.367,26.328H0L8.467,0h5.241l8.5,26.325-4.491,0-2.46-7.735H6.7L4.368,26.327Zm6.524-22.8c-.232.974-.637,2.625-1.249,4.956L7.45,15.348h7.078L12.3,8.485c-.26-.8-.741-2.608-1.32-4.956Z" transform="translate(100.874 39.472)"/>
          <path id="Fill_10" data-name="Fill 10" d="M4.385,27.076H.16V6.631C.16,4.592.108,2.551,0,.392H3.707L3.94,3.405h.071A7.059,7.059,0,0,1,10.41,0a7.081,7.081,0,0,1,5.6,2.656,10.275,10.275,0,0,1,2.282,7.005,10.745,10.745,0,0,1-2.638,7.647A7.713,7.713,0,0,1,9.8,19.8c-2.534,0-4.307-.88-5.418-2.691v9.962ZM9.073,3.369A4.5,4.5,0,0,0,6.239,4.4a4.791,4.791,0,0,0-1.658,2.71,5.72,5.72,0,0,0-.2,1.283v3.172a5.1,5.1,0,0,0,1.266,3.495,4.216,4.216,0,0,0,3.3,1.425,4.37,4.37,0,0,0,3.709-1.836A8.011,8.011,0,0,0,13.993,9.8a7.693,7.693,0,0,0-1.249-4.563A4.331,4.331,0,0,0,9.073,3.369Z" transform="translate(126.56 46.424)"/>
          <path id="Fill_12" data-name="Fill 12" d="M4.385,27.076H.16V6.631C.16,4.592.108,2.551,0,.392H3.707L3.94,3.405h.071A7.059,7.059,0,0,1,10.41,0a7.081,7.081,0,0,1,5.6,2.656,10.275,10.275,0,0,1,2.282,7.005,10.745,10.745,0,0,1-2.638,7.647A7.713,7.713,0,0,1,9.8,19.8c-2.534,0-4.307-.88-5.418-2.691v9.962ZM9.073,3.369A4.5,4.5,0,0,0,6.239,4.4a4.847,4.847,0,0,0-1.658,2.71,5.72,5.72,0,0,0-.2,1.283v3.172a5.1,5.1,0,0,0,1.266,3.495,4.216,4.216,0,0,0,3.3,1.425,4.327,4.327,0,0,0,3.709-1.836A7.907,7.907,0,0,0,13.993,9.8a7.693,7.693,0,0,0-1.249-4.563A4.331,4.331,0,0,0,9.073,3.369Z" transform="translate(148.378 46.424)"/>
          <path id="Fill_14" data-name="Fill 14" d="M16.31,19.323a7.049,7.049,0,0,1-2.335,5.472,10.364,10.364,0,0,1-7.166,2.3A12.539,12.539,0,0,1,0,25.454l.98-3.512a11.84,11.84,0,0,0,6.1,1.64,5.741,5.741,0,0,0,3.708-1.07,3.493,3.493,0,0,0,1.337-2.87,3.712,3.712,0,0,0-1.087-2.692A10.178,10.178,0,0,0,7.4,14.92C2.745,13.191.446,10.677.446,7.38A6.687,6.687,0,0,1,2.888,2.068,9.687,9.687,0,0,1,9.358,0,12.72,12.72,0,0,1,15.33,1.248L14.26,4.67A10.521,10.521,0,0,0,9.2,3.458,5.252,5.252,0,0,0,5.7,4.545,3.163,3.163,0,0,0,4.652,6.934,3.2,3.2,0,0,0,5.864,9.5,13.6,13.6,0,0,0,9.7,11.533a12.849,12.849,0,0,1,4.991,3.209,6.67,6.67,0,0,1,1.622,4.581" transform="translate(174.778 39.098)"/>
          <path id="Fill_16" data-name="Fill 16" d="M11.551,7.9H6.9v9.216c0,2.335.82,3.512,2.46,3.512a7.824,7.824,0,0,0,1.872-.2l.125,3.209a9.782,9.782,0,0,1-3.28.463,5.048,5.048,0,0,1-3.9-1.533c-.945-1.016-1.408-2.727-1.408-5.116V7.879H0V4.724H2.763V1.248L6.9,0V4.724h4.652V7.9" transform="translate(193.512 42.093)"/>
          <path id="Fill_18" data-name="Fill 18" d="M9.144,19.786a8.576,8.576,0,0,1-6.667-2.763A10.071,10.071,0,0,1,0,10.036,10.392,10.392,0,0,1,2.549,2.817,8.93,8.93,0,0,1,9.448,0a8.7,8.7,0,0,1,6.719,2.781,9.943,9.943,0,0,1,2.425,6.934A10.478,10.478,0,0,1,16.1,16.9,8.973,8.973,0,0,1,9.144,19.786ZM9.3,3.065A4.217,4.217,0,0,0,5.437,5.33,8.489,8.489,0,0,0,4.314,9.893a8.488,8.488,0,0,0,1.123,4.475,4.329,4.329,0,0,0,7.628-.036A8.577,8.577,0,0,0,14.225,9.8,8.457,8.457,0,0,0,13.1,5.33,4.2,4.2,0,0,0,9.3,3.065Z" transform="translate(207.398 46.442)"/>
          <path id="Fill_20" data-name="Fill 20" d="M10.178,4.1a7.815,7.815,0,0,0-1.337-.107A3.98,3.98,0,0,0,5.4,5.668,6.359,6.359,0,0,0,4.349,9.412v9.964H.125V6.364C.125,4.171.089,2.175,0,.392H3.672l.16,3.636h.125a6.471,6.471,0,0,1,2.1-3.012A5.131,5.131,0,0,1,9.109,0,8.878,8.878,0,0,1,10.16.071L10.178,4.1" transform="translate(229.536 46.424)"/>
          <path id="Fill_22" data-name="Fill 22" d="M9.446,19.769a9.245,9.245,0,0,1-6.933-2.6A9.63,9.63,0,0,1,0,10.2,10.926,10.926,0,0,1,2.353,3.048,8.111,8.111,0,0,1,8.984,0a7.052,7.052,0,0,1,6.2,3.048A10.254,10.254,0,0,1,16.88,9.037a9.673,9.673,0,0,1-.159,1.908H4.064a5.513,5.513,0,0,0,1.836,4.3,6.355,6.355,0,0,0,4.135,1.32,14.229,14.229,0,0,0,5.116-.892l.66,2.924A15.931,15.931,0,0,1,9.446,19.769ZM8.68,2.941A4.015,4.015,0,0,0,5.33,4.652,6.335,6.335,0,0,0,4.082,7.932l8.77.019a5.689,5.689,0,0,0-.82-3.245A3.69,3.69,0,0,0,8.68,2.941Z" transform="translate(241.694 46.371)"/>
        </g>
        <path id="Clip_31-2" data-name="Clip 31" d="M0,89.126H300.8V0H0Z" transform="translate(0.135 0.096)" fill="none"/>
      </g>
    </g>
    <text id="What_are_you_waiting" data-name="What are you waiting" transform="translate(610.282 3100.428)" fill="#0b1126" font-size="16" font-family="Helvetica-Light, Helvetica" font-weight="300"><tspan x="0" y="0">Disponible en</tspan></text>
  </g>
</svg>
