<svg xmlns="http://www.w3.org/2000/svg" xmlns:xlink="http://www.w3.org/1999/xlink" width="306.423" height="89.278" viewBox="0 0 306.423 89.278">
  <defs>
    <clipPath id="clip-path">
      <path id="Clip_2" data-name="Clip 2" d="M0,0H300.8V89.126H0Z" fill="none"/>
    </clipPath>
    <clipPath id="clip-path-2">
      <path id="Clip_9" data-name="Clip 9" d="M0,89.126H300.8V0H0Z" fill="none"/>
    </clipPath>
    <clipPath id="clip-path-3">
      <path id="Clip_12" data-name="Clip 12" d="M0,3.119V52.361a4.407,4.407,0,0,0,1.114,3.119h0l.223.223L28.966,28.075v-.446L.891,0A4.354,4.354,0,0,0,0,3.119" fill="none"/>
    </clipPath>
    <clipPath id="clip-path-4">
      <path id="Clip_15" data-name="Clip 15" d="M0,9.136V9.8L9.135,18.94l11.141-6.016c3.119-1.783,3.119-4.679,0-6.462h0L9.358.223,9.135,0Z" fill="none"/>
    </clipPath>
    <clipPath id="clip-path-5">
      <path id="Clip_18" data-name="Clip 18" d="M0,27.852c1.114,1.114,2.674,1.114,4.679.222h0L37.21,9.358,27.852,0Z" fill="none"/>
    </clipPath>
    <linearGradient id="linear-gradient" x1="0.863" y1="0.177" x2="-0.5" y2="1.943" gradientUnits="objectBoundingBox">
      <stop offset="0" stop-color="#ff3a44"/>
      <stop offset="1" stop-color="#c31162"/>
    </linearGradient>
    <clipPath id="clip-path-6">
      <path id="Clip_21" data-name="Clip 21" d="M0,.955,27.852,28.584l9.358-9.358L4.679.733A5.079,5.079,0,0,0,2.24,0h0A3.079,3.079,0,0,0,0,.955" transform="translate(0 0)" fill="none"/>
    </clipPath>
  </defs>
  <g id="Grupo_4541" data-name="Grupo 4541" transform="translate(-164 -3075.646)">
    <rect id="Rectangle" width="302.035" height="88.924" rx="18" transform="translate(168.389 3076)"/>
    <g id="icon_app_googlestore" data-name="icon/app/googlestore" transform="translate(164 3075.646)">
      <g id="icon_app_googlestore-2" data-name="icon/app/googlestore">
        <g id="rectange">
          <g id="Group_3" data-name="Group 3" transform="translate(0 0)">
            <path id="Clip_2-2" data-name="Clip 2" d="M0,0H300.8V89.126H0Z" fill="none"/>
          </g>
          <path id="Clip_9-2" data-name="Clip 9" d="M0,89.126H300.8V0H0Z" fill="none"/>
          <g id="Enmascarar_grupo_1" data-name="Enmascarar grupo 1" clip-path="url(#clip-path-2)">
            <path id="Fill_8" data-name="Fill 8" d="M80.882,37.656a9.26,9.26,0,0,1-8.467-5.571l3.564-1.56a4.923,4.923,0,0,0,4.679,3.342c3.21,0,5.126-2.082,5.126-5.569V26.961h-.223a6.444,6.444,0,0,1-4.9,2.227,9.01,9.01,0,0,1-6.405-2.674,9.373,9.373,0,0,1-2.73-6.684,9.649,9.649,0,0,1,2.813-6.8,9.007,9.007,0,0,1,6.322-2.785,7.344,7.344,0,0,1,5.126,2.227V10.918H89.8V27.851c0,3.264-.881,5.785-2.618,7.493A8.742,8.742,0,0,1,80.882,37.656Zm0-23.619a5.524,5.524,0,0,0-5.348,5.793,5.525,5.525,0,0,0,5.348,5.794c2.921,0,5.124-2.491,5.124-5.794S83.8,14.037,80.882,14.037ZM177.138,37.21H172.9l4.234-9.358-7.353-16.933h4.456l4.9,12.032h.223l4.679-12.032H188.5l-11.363,26.29Zm-68.85-7.575a9.2,9.2,0,0,1-6.684-2.785,9.692,9.692,0,0,1-2.674-6.8,9.9,9.9,0,0,1,2.618-6.963,8.659,8.659,0,0,1,6.295-2.618c4.884,0,7.122,3.769,8.021,6.016l.445,1.115-12.7,5.348a4.824,4.824,0,0,0,4.679,2.9,5.371,5.371,0,0,0,4.679-2.674l3.119,2.229A9.1,9.1,0,0,1,108.288,29.635Zm-.445-15.6a5.4,5.4,0,0,0-4.9,5.571l8.467-3.565A3.937,3.937,0,0,0,107.843,14.037ZM60.16,29.635a9.511,9.511,0,0,1-9.581-9.582,9.371,9.371,0,0,1,9.581-9.581,9.673,9.673,0,0,1,6.8,2.618,9.423,9.423,0,0,1,2.785,6.963A9.371,9.371,0,0,1,60.16,29.635Zm0-15.6a5.524,5.524,0,0,0-5.348,5.793,5.365,5.365,0,1,0,10.7,0C65.508,16.474,63.259,14.037,60.16,14.037Zm-20.722,15.6a9.511,9.511,0,0,1-9.581-9.582,9.371,9.371,0,0,1,9.581-9.581,9.673,9.673,0,0,1,6.8,2.618,9.423,9.423,0,0,1,2.785,6.963A9.371,9.371,0,0,1,39.438,29.635Zm0-15.6a5.524,5.524,0,0,0-5.348,5.793,5.365,5.365,0,1,0,10.7,0C44.786,16.474,42.537,14.037,39.438,14.037ZM14.929,29.412A15.017,15.017,0,0,1,0,14.706,15.017,15.017,0,0,1,14.929,0,14.193,14.193,0,0,1,24.956,4.011l-2.9,2.9a10.945,10.945,0,0,0-7.353-2.9,10.473,10.473,0,0,0-10.472,10.7A10.353,10.353,0,0,0,14.706,25.4a9.878,9.878,0,0,0,7.353-2.9,8.507,8.507,0,0,0,2.229-5.124H14.706V13.369H28.52a8.387,8.387,0,0,1,.223,2.451,13.488,13.488,0,0,1-3.565,9.358C22.475,28.106,19.314,29.412,14.929,29.412Zm145.5-.223a7.5,7.5,0,0,1-4.791-1.7,5.869,5.869,0,0,1-2.117-4.539,5.5,5.5,0,0,1,2.507-4.624,9.772,9.772,0,0,1,5.515-1.616,8.794,8.794,0,0,1,4.234,1.114V17.6c-.21-2.1-2.043-3.565-4.456-3.565a3.9,3.9,0,0,0-3.789,2.005l-3.787-1.56c1.2-3.121,4.585-4.233,7.353-4.233a9.226,9.226,0,0,1,6.044,2.061,8.285,8.285,0,0,1,2.869,5.737v10.7H166V26.515h-.223A6.274,6.274,0,0,1,160.427,29.188Zm1.337-8.912c-2.154,0-4.456.761-4.456,2.9,0,1.8,2,2.452,3.342,2.452a5.18,5.18,0,0,0,4.9-4.457l-.331-.134A8.035,8.035,0,0,0,161.764,20.277Zm-10.918,8.467h-4.233V.892h4.233v27.85Zm-21.39,0h-4.233V.892h10.027a9.636,9.636,0,0,1,6.322,2.34,8.352,8.352,0,0,1,2.813,6.35,8.352,8.352,0,0,1-2.813,6.35,9.636,9.636,0,0,1-6.322,2.34h-5.794v10.47Zm0-24.064v9.582h6.016a5.089,5.089,0,0,0,4.9-4.9,4.775,4.775,0,0,0-1.281-3.092,4.832,4.832,0,0,0-3.621-1.588ZM96.7,28.743H92.469V.892H96.7v27.85Z" transform="translate(91.577 38.101)" fill="#fff"/>
          </g>
        </g>
        <g id="Group_13" data-name="Group 13" transform="translate(22.282 16.712)">
          <path id="Clip_12-2" data-name="Clip 12" d="M0,3.119V52.361a4.407,4.407,0,0,0,1.114,3.119h0l.223.223L28.966,28.075v-.446L.891,0A4.354,4.354,0,0,0,0,3.119" fill="none"/>
          <g id="Group_13-2" data-name="Group 13" clip-path="url(#clip-path-3)">
            <path id="Fill_11" data-name="Fill 11" d="M0,3.119V52.361a4.407,4.407,0,0,0,1.114,3.119h0l.223.223L28.966,28.075v-.446L.891,0A4.354,4.354,0,0,0,0,3.119" fill="#32bbff"/>
          </g>
        </g>
        <g id="Group_16" data-name="Group 16" transform="translate(51.025 35.204)">
          <path id="Clip_15-2" data-name="Clip 15" d="M0,9.136V9.8L9.135,18.94l11.141-6.016c3.119-1.783,3.119-4.679,0-6.462h0L9.358.223,9.135,0Z" fill="none"/>
          <g id="Group_16-2" data-name="Group 16" clip-path="url(#clip-path-4)">
            <path id="Fill_14" data-name="Fill 14" d="M0,9.136V9.8L9.135,18.94l11.141-6.016c3.119-1.783,3.119-4.679,0-6.462h0L9.358.223,9.135,0Z" fill="#ffd500"/>
          </g>
        </g>
        <g id="Group_19" data-name="Group 19" transform="translate(23.173 44.563)">
          <path id="Clip_18-2" data-name="Clip 18" d="M0,27.852c1.114,1.114,2.674,1.114,4.679.222h0L37.21,9.358,27.852,0Z" fill="none"/>
          <g id="Group_19-2" data-name="Group 19" clip-path="url(#clip-path-5)">
            <path id="Fill_17" data-name="Fill 17" d="M0,27.852c1.114,1.114,2.674,1.114,4.679.222h0L37.21,9.358,27.852,0Z" fill="url(#linear-gradient)"/>
          </g>
        </g>
        <g id="Group_22" data-name="Group 22" transform="translate(23.173 15.979)">
          <path id="Clip_21-2" data-name="Clip 21" d="M0,.955,27.852,28.584l9.358-9.358L4.679.733A5.079,5.079,0,0,0,2.24,0h0A3.079,3.079,0,0,0,0,.955" transform="translate(0 0)" fill="none"/>
          <g id="Group_22-2" data-name="Group 22" transform="translate(0 0)" clip-path="url(#clip-path-6)">
            <path id="Fill_20" data-name="Fill 20" d="M0,.955,27.852,28.584l9.358-9.358L4.679.733A5.079,5.079,0,0,0,2.24,0h0A3.079,3.079,0,0,0,0,.955" transform="translate(0 0)" fill="#29cc5e"/>
          </g>
        </g>
        <g id="Group_29" data-name="Group 29" transform="translate(22.282 15.925)">
          <path id="Fill_23" data-name="Fill 23" d="M36.987,0,4.679,18.271a3.644,3.644,0,0,1-4.456,0L0,18.494l.223.223a3.644,3.644,0,0,0,4.456,0Z" transform="translate(0.891 37.774)"/>
          <path id="Fill_25" data-name="Fill 25" d="M.872,27.359H.852A3.494,3.494,0,0,1,0,25.145a4.346,4.346,0,0,0,.87,2.211ZM38.061,9.311h0l-.222-.222L48.98,2.85C50.52,1.823,51.185.97,51.206,0A3.741,3.741,0,0,1,48.98,3.072L38.062,9.31Z" transform="translate(0.04 28.685)"/>
          <path id="Fill_27" data-name="Fill 27" d="M5.57,1.009,49.019,25.741c1.337.891,2.228,1.783,2.228,2.9,0-1.114-.668-2.228-2.228-3.119L5.57.786C2.451-1,0,.34,0,3.906v.223C0,.786,2.451-.774,5.57,1.009" transform="translate(0 0)" fill="#fff"/>
        </g>
      </g>
    </g>
    <text id="What_are_you_waiting" data-name="What are you waiting" transform="translate(254.428 3101.428)" fill="#f9f9f9" font-size="16" font-family="Helvetica-Light, Helvetica" font-weight="300"><tspan x="0" y="0">Disponible en</tspan></text>
  </g>
</svg>
